<?xml version="1.0" encoding="utf-8"?>
<!-- Generator: Adobe Illustrator 24.0.2, SVG Export Plug-In . SVG Version: 6.00 Build 0)  -->
<svg version="1.1" id="Calque_1" xmlns="http://www.w3.org/2000/svg" xmlns:xlink="http://www.w3.org/1999/xlink" x="0px" y="0px"
	 viewBox="0 0 95.3 110" style="enable-background:new 0 0 95.3 110;" xml:space="preserve">
<title>Fichier 1</title>
<path d="M47.6,110L0,82.5v-55L47.6,0l47.6,27.5v55L47.6,110z M6,79l41.6,24l41.6-24V31L47.6,7L6,31V79z"/>
<path d="M24.4,76.9C22.8,78,21,79.4,19,80.8l1.4,0.8l8.2,4.8c5.8-3.7,7.5-8.4,5.6-15.1c-0.9-3.2-2.3-6.2-3.3-9.3
	c-4.8-15.7,6.4-28.3,22.5-25.1c2.1,0.4,4,1.1,5.7,1.6c1.2-4.2,3-11.2,4.4-16.6l-14.6-8.5c-0.3,3.7-1.3,11.6-1.4,14L44.3,15
	l-16.6,9.6l1.6,5.7c-0.6-0.7-2.5-2.5-4.2-4.1L11.3,34l9.9,9.6c-1.8-0.8-6.5-2.8-9.9-4.2v14.9c2.6,0.7,5.1,1.3,7.8,1.8l-7.8,1v11.6
	l7-0.9c-1.2,0.7-4.4,2.7-7,4.2v4.4l5.4,3.1"/>
<path d="M55.7,39.8V39c-2.9-0.5-5.8-0.7-8.8-0.8c-7.7,0.2-14,6.5-14.9,14.4c-1,8.5,2.7,14,11.2,16c5.6,1.3,11.3,1.9,17.6,2.9
	c-1.8-1-3-1.7-4.3-2.4c-4.9-2.4-8.8-6.4-11-11.3c-0.3-0.7-1.2-1-1.7-1.6c-0.8-0.8-1.6-1.7-2.3-2.6c0.2-0.2,0.3-0.3,0.5-0.5
	c1.9,2.6,4.6,2.4,6.5,2.3c2.9,2.5,5.3,4.6,7.8,6.7c0.2,0.2,0.7,0.1,1.1,0c2.5-0.8,3.9-3.5,3.2-6c-0.2-0.7-0.6-1.3-1-1.8
	c-3.2-3.7-5.2-8.1-6.9-12.6L55.7,39.8z M46.4,45.4c3.3-0.6,3.7-0.4,5.1,3L46.4,45.4z"/>
<path d="M55.8,85c-7.3-0.3-13.6-2.6-18.8-8.6c-0.3,5.1-3,8.3-6.5,11L48,97.5l18.8-10.8c-0.6-0.3-1.2-0.5-1.9-0.6
	C61.9,85.6,58.9,85.2,55.8,85z"/>
<path d="M63.9,75.5c-3.4-1.5-7-2.6-10.7-3.2c-6.1-1.1-12.5-1-18.3-5.4c0.2,1,0.3,1.3,0.4,1.7c3.1,9,9.2,13.6,18.7,14.4
	c5,0.4,10.1,0.4,14.8,2.7l1.3-0.7C69.8,80.8,67.5,77.3,63.9,75.5z"/>
<path d="M62.1,51l19.5-18.8l-14.9-8.6C61.3,31.9,60.7,46.5,62.1,51z"/>
<path d="M63.8,53.5c-0.9,1.6-1.2,3.6-1.8,5.6c4.1-1.8,7.7-3.7,11.4-5c3.7-1,7.5-1.9,11.3-2.5V34l-0.6-0.3
	C77.7,38.3,67.6,47.1,63.8,53.5z"/>
<path d="M61.9,63.4c4.1-0.3,7.8-0.9,11.5-0.8s7.3,0.7,11.3,1v-9.7c-8,0.7-15,2.7-21.2,7.4C62.9,61.9,62.3,62.6,61.9,63.4z"/>
<path d="M72,83.7l11.3-6.5c-6.3-4.7-16.2-8.1-23.4-8.9C65.8,71.8,70.1,76.5,72,83.7z"/>
<path d="M61.8,66c6.4,1.4,15.8,3.6,22.8,10.1V65.8C74.6,63,68.5,64.3,61.8,66z"/>
</svg>
